Coordinates
version=1
nRows=24
nColumns=22
inDegrees=yes

Units are S.I. units (second, meters, Newtons, ...)
If the header above contains a line with 'inDegrees', this indicates whether rotational values are in degrees (yes) or radians (no).

endheader
time	pelvis_tilt	pelvis_list	pelvis_rotation	pelvis_tx	pelvis_ty	pelvis_tz	hip_flexion_r	hip_adduction_r	hip_rotation_r	knee_angle_r	ankle_angle_r	subtalar_angle_r	hip_flexion_l	hip_adduction_l	hip_rotation_l	knee_angle_l	ankle_angle_l	subtalar_angle_l	lumbar_extension	lumbar_bending	lumbar_rotation
      0.01000000	     -9.44193931	      1.17267622	    -15.95677403	     -1.10114730	      0.88497875	     -0.15532718	     14.17920949	     -3.32666757	      5.75176767	    -13.69037432	     12.31992099	      0.30973084	     14.07378917	     -4.59188463	     -8.82811594	    -15.40648144	     13.00711224	      3.29651108	      1.24641839	     -1.02260634	      7.30991972
      0.02000000	     -9.46033566	      1.22401866	    -16.29131416	     -1.10150918	      0.88497462	     -0.15576118	     14.54498305	     -3.32869960	      6.06675622	    -14.12197283	     12.30870953	      0.41110081	     14.07561757	     -4.57247034	     -9.13193182	    -15.40225123	     13.01686369	      3.27338365	      1.18465448	     -1.12964852	      7.56398128
      0.03000000	     -9.50187216	      1.27099696	    -16.65505021	     -1.10190074	      0.88495081	     -0.15626729	     14.94658613	     -3.31785572	      6.38806757	    -14.55748168	     12.26260356	      0.58356298	     14.10425339	     -4.56646390	     -9.45972828	    -15.40912090	     13.03469955	      3.23791461	      1.13919163	     -1.22901585	      7.83133507
      0.04000000	     -9.54485089	      1.31042682	    -17.01698191	     -1.10224455	      0.88494005	     -0.15684194	     15.32580084	     -3.30509798	      6.67694045	    -14.95524149	     12.19975308	      0.79599171	     14.12776107	     -4.56270072	     -9.78773526	    -15.40897994	     13.05480413	      3.19794188	      1.09627515	     -1.31836468	      8.08083202
      0.05000000	     -9.57930549	      1.34117535	    -17.34864451	     -1.10247386	      0.88495267	     -0.15750234	     15.63750722	     -3.30303893	      6.91284545	    -15.26834702	     12.12527979	      1.03049549	     14.13363574	     -4.55134387	    -10.08960200	    -15.39640372	     13.07250640	      3.15565803	      1.05423327	     -1.39009590	      8.28631997
      0.06000000	     -9.59767362	      1.36186164	    -17.62929295	     -1.10254241	      0.88499854	     -0.15823491	     15.85012930	     -3.31793923	      7.07916788	    -15.46862068	     12.04704075	      1.26794848	     14.11066911	     -4.52695664	    -10.34930907	    -15.36481185	     13.08548824	      3.11176155	      1.01176449	     -1.44388898	      8.43109818
      0.07000000	     -9.59463339	      1.37524287	    -17.84550457	     -1.10243112	      0.88508014	     -0.15903496	     15.94671834	     -3.35759512	      7.17344653	    -15.54140959	     11.97150831	      1.50693526	     14.05380166	     -4.48178665	    -10.55431224	    -15.31114031	     13.08948100	      3.06511976	      0.96769720	     -1.48252637	      8.50353007
      0.08000000	     -9.56548599	      1.37997845	    -17.98739659	     -1.10212496	      0.88520234	     -0.15989832	     15.91603646	     -3.42478070	      7.18629073	    -15.48130600	     11.89206573	      1.71919933	     13.95500971	     -4.41385357	    -10.69594029	    -15.22842285	     13.08239044	      3.01854760	      0.91911530	     -1.50465196	      8.49005755
      0.09000000	     -9.59717016	      1.38576583	    -18.05605974	     -1.10169853	      0.88519950	     -0.16079668	     15.88077975	     -3.49098954	      7.10720301	    -15.34259372	     11.86949439	      1.74108745	     13.93358459	     -4.35279916	    -10.79665478	    -15.16273779	     13.10717241	      3.01154038	      0.96539601	     -1.49323030	      8.40974062
      0.10000000	     -9.50889334	      1.39186644	    -18.05681305	     -1.10103130	      0.88540217	     -0.16174676	     15.59240522	     -3.62588030	      7.00062722	    -15.00705916	     11.76776712	      1.86654141	     13.74550321	     -4.22167054	    -10.80894022	    -15.01688955	     13.05645568	      2.97321534	      0.90691179	     -1.50840658	      8.24785123
      0.11000000	     -9.47633526	      1.41919378	    -18.01817833	     -1.10031082	      0.88546695	     -0.16268717	     15.32848599	     -3.76798888	      6.85930723	    -14.62685405	     11.73154955	      1.88931855	     13.63777996	     -4.08712388	    -10.82681434	    -14.89909049	     13.04390032	      2.95356574	      0.93615373	     -1.51636798	      8.06871785
      0.12000000	     -9.45801841	      1.46511253	    -17.93847830	     -1.09950607	      0.88548224	     -0.16362911	     15.03258221	     -3.93071216	      6.70226142	    -14.17640426	     11.69176418	      1.84582289	     13.54383815	     -3.92967727	    -10.81499985	    -14.76753331	     13.02112929	      2.94671957	      1.00767268	     -1.52810147	      7.84833301
      0.13000000	     -9.43430005	      1.52055908	    -17.82347717	     -1.09861508	      0.88547656	     -0.16457289	     14.68663446	     -4.11208813	      6.52261751	    -13.66345295	     11.67428227	      1.73045086	     13.43876594	     -3.75316680	    -10.78305144	    -14.62206806	     12.99897180	      2.93829511	      1.09138273	     -1.54363225	      7.62525426
      0.14000000	     -9.45921782	      1.61316470	    -17.69405658	     -1.09773272	      0.88536746	     -0.16550506	     14.39141860	     -4.31270537	      6.36436840	    -13.13603038	     11.63003945	      1.60417131	     13.39504861	     -3.55267645	    -10.75384305	    -14.47251016	     12.97129309	      2.93544724	      1.24770932	     -1.57132458	      7.36838013
      0.15000000	     -9.50179590	      1.72015958	    -17.55135768	     -1.09684002	      0.88520971	     -0.16642571	     14.10297467	     -4.52416261	      6.19984074	    -12.58748087	     11.59718445	      1.45472315	     13.37189901	     -3.34046066	    -10.72183420	    -14.32005462	     12.94958963	      2.92184086	      1.43069525	     -1.60075228	      7.12157969
      0.16000000	     -9.56950547	      1.84030347	    -17.40138899	     -1.09596170	      0.88500050	     -0.16731897	     13.84116650	     -4.73998632	      6.04684594	    -12.03813168	     11.56507672	      1.29928852	     13.38113316	     -3.12322884	    -10.69542245	    -14.17260694	     12.93299201	      2.89192740	      1.64704110	     -1.63272701	      6.89389773
      0.17000000	     -9.66569630	      1.97043689	    -17.25876288	     -1.09512491	      0.88473935	     -0.16818473	     13.61726397	     -4.95565277	      5.90568894	    -11.49354481	     11.53147010	      1.15692983	     13.42713350	     -2.90747681	    -10.68014470	    -14.03532587	     12.92452132	      2.84397750	      1.89019995	     -1.66000618	      6.69116215
      0.18000000	     -9.78537313	      2.11096994	    -17.14189405	     -1.09437216	      0.88443228	     -0.16899065	     13.43767292	     -5.16828644	      5.81861683	    -10.96499285	     11.51760778	      1.08878220	     13.52178822	     -2.70323103	    -10.71813780	    -13.94457350	     12.95418723	      2.81287874	      2.14963687	     -1.68889495	      6.54839188
      0.19000000	     -9.92260648	      2.24316821	    -17.03085040	     -1.09364528	      0.88413182	     -0.16976977	     13.28603646	     -5.36741806	      5.70922707	    -10.45258062	     11.45889517	      1.02901558	     13.62013199	     -2.51165889	    -10.73117765	    -13.83027716	     12.95602898	      2.76721909	      2.41619127	     -1.69904821	      6.41229561
      0.20000000	    -10.07929504	      2.34713676	    -16.91707297	     -1.09294877	      0.88384858	     -0.17052970	     13.16642055	     -5.53155483	      5.56954257	     -9.97662490	     11.35329387	      0.96639956	     13.72288675	     -2.35330359	    -10.70959369	    -13.69716302	     12.93263206	      2.66011337	      2.68380462	     -1.67094718	      6.27470642
      0.21000000	    -10.21864997	      2.45433419	    -16.85519313	     -1.09236110	      0.88358873	     -0.17120792	     13.06115981	     -5.69245110	      5.50375124	     -9.52661840	     11.29256476	      0.96428907	     13.84061305	     -2.21042979	    -10.76038972	    -13.63536358	     12.96339932	      2.61100981	      2.90977544	     -1.65384606	      6.22516555
      0.22000000	    -10.36647462	      2.53542615	    -16.80841804	     -1.09184376	      0.88336281	     -0.17184669	     12.98947034	     -5.81726398	      5.43782138	     -9.12350647	     11.18289957	      0.99169778	     13.96019684	     -2.10248244	    -10.79635780	    -13.56784938	     12.96743258	      2.55443506	      3.11852100	     -1.60752845	      6.19734801
      0.23000000	    -10.50878435	      2.59593189	    -16.78597608	     -1.09140015	      0.88317157	     -0.17244061	     12.94249753	     -5.91471451	      5.38630374	     -8.76883444	     11.06595670	      1.04863966	     14.08092394	     -2.02529693	    -10.83282118	    -13.52363073	     12.97441961	      2.49441463	      3.29457173	     -1.54260625	      6.19730751
      0.24000000	    -10.64241708	      2.63819479	    -16.78663471	     -1.09104020	      0.88301100	     -0.17298416	     12.91996729	     -5.98545092	      5.35583132	     -8.46827489	     10.94536614	      1.13360087	     14.20247365	     -1.97548150	    -10.87097030	    -13.50218464	     12.98349450	      2.43261997	      3.43233503	     -1.46597641	      6.22790507
